PathFileType	4	(X/Y/Z)	C:/Users/beibeiliu/ov580/test_trc/capture2\sequence.8_training_dense_left.trc
DataRate	CameraRate	NumFrames	NumMarkers	Units	OrigDataRate	OrigDataStartFrame	OrigNumFrames
120	120	11	19	mm	120	251	400
Frame#	Time	ThumbCMC			ThumbMCP			ThumbIP			ThumbTip			IndexMCP			IndexPIP			IndexTip			MiddleMCP			MiddlePIP			MiddleTip			RingMCP			RingPIP			RingTip			PinkyMCP			PinkyPIP			PinkyTip			BackHand1			BackHand2			BackHand3	
		X0	Y0	Z0	X1	Y1	Z1	X2	Y2	Z2	X3	Y3	Z3	X4	Y4	Z4	X5	Y5	Z5	X6	Y6	Z6	X7	Y7	Z7	X8	Y8	Z8	X9	Y9	Z9	X10	Y10	Z10	X11	Y11	Z11	X12	Y12	Z12	X13	Y13	Z13	X14	Y14	Z14	X15	Y15	Z15	X16	Y16	Z16	X17	Y17	Z17	X18	Y18	Z18	
250	2.08333	-219.477	65.1999	-51.6909	-231.222	82.4665	-68.4152	-246.077	89.4881	-88.0247	-258.94	95.6659	-96.5982	-206.991	56.7387	-121.931	-201.133	57.1203	-143.396	-201.563	52.2444	-171.526	-178.51	40.659	-126.433	-174.493	42.3355	-148.679	-166.808	35.7392	-171.705	-159.842	38.6875	-114.596	-145.274	36.4398	-135.676	-138.943	33.9618	-158.708	-137.338	36.8841	-94.9275	-118.817	38.1904	-106.746	-103.916	29.162	-118.802	-177.939	26.2229	-69.6205	-184.35	23.7109	-40.5221	-206.342	37.2664	-59.1101	
251	2.09167	-224.168	64.1079	-48.9897	-230.642	80.1642	-65.7265	-244.232	88.296	-87.6997	-258.131	94.0325	-102.47	-204.998	52.6278	-123.525	-202.847	55.0322	-145.805	-202.276	51.5322	-167.791	-181.795	38.3165	-125.214	-173.611	37.0868	-146.361	-168.495	31.6049	-172.116	-159.235	32.1003	-116.808	-150.137	32.0127	-136.028	-138.755	27.3713	-159.287	-139.349	32.5387	-94.0203	-121.593	31.6308	-106.659	-104.912	21.2395	-122.468	-179.689	22.5559	-71.2414	-186.489	18.513	-39.687	-206.486	31.5728	-60.3878	
252	2.1	-219.72	64.3781	-47.7112	-230.041	81.8363	-69.2154	-241.42	91.3214	-85.4837	-253.776	100.798	-99.984	-206.931	53.0247	-119.403	-201.902	53.9046	-147.164	-202.44	49.8226	-170.271	-182.804	34.0158	-125.647	-178.223	34.889	-146.67	-173.144	27.9087	-176.352	-163.098	27.6273	-115.5	-153.773	26.9782	-133.829	-142.501	20.6034	-156.697	-137.865	22.0699	-94.6486	-123.996	23.3949	-112.107	-110.123	13.3564	-125.805	-182.683	20.4073	-68.1038	-190.568	16.0724	-39.7895	-211.009	32.8203	-59.7463	
253	2.10833	-216.522	73.9914	-45.1173	-216.344	88.947	-65.5542	-230.71	102.79	-83.5889	-241.242	114.926	-96.94	-203.184	56.0198	-122.102	-203.226	61.8384	-142.297	-205.399	59.671	-166.545	-187.514	36.0446	-126.587	-183.962	35.5768	-146.31	-178.436	29.6157	-174.455	-167.22	22.1797	-118.718	-158.355	18.6772	-136.809	-151.026	13.5557	-163.355	-146.756	12.5432	-97.8426	-131.618	10.6339	-114.587	-121.371	-2.39292	-126.455	-188.133	17.585	-72.1337	-195.324	15.1471	-43.1521	-212.879	42.0175	-60.7483	
254	2.11667	-205.621	76.2428	-48.6961	-206.269	96.5965	-64.5293	-213.49	110.431	-80.9046	-222.098	125.357	-97.6692	-201.858	64.9711	-118.78	-200.577	68.9304	-142.788	-202.715	66.808	-169.388	-191.068	36.3985	-121.893	-187.816	35.9955	-147.258	-186.279	30.5589	-178.967	-176.295	19.8659	-116.977	-168.859	16.5353	-141.845	-161.787	8.89457	-165.444	-156.542	3.93045	-98.8635	-145.213	1.74065	-116.051	-136.67	-12.6409	-133.996	-196.062	20.4124	-72.3815	-201.274	20.0299	-42.4851	-212.819	47.6204	-57.6484	
255	2.125	-194.966	78.4753	-47.4759	-191.537	97.0551	-62.3316	-197.233	115.414	-79.5785	-202.566	131.14	-94.9375	-196.502	67.9	-117.788	-194.152	70.1227	-144.387	-196.853	68.7482	-165.702	-192.405	43.3625	-125.539	-187.739	36.6462	-146.327	-188.389	31.462	-175.701	-182.343	22.0623	-117.826	-174.733	12.3223	-141.873	-172.394	8.34657	-167.521	-166.926	-0.118016	-103.893	-155.009	-8.3666	-114.704	-149.57	-23.1754	-135.479	-199.302	23.8015	-71.9362	-205.722	23.8696	-42.166	-210.1	50.3368	-56.2601	
256	2.13333	-187.503	82.4454	-43.6696	-179.939	99.2168	-61.928	-181.411	113.148	-82.0195	-185.344	135.48	-91.3941	-189.33	72.5305	-116.217	-187.186	77.448	-144.477	-190.877	74.1776	-167.526	-191.005	40.8041	-123.209	-188.899	39.167	-147.285	-190.204	36.1888	-174.112	-184.156	22.341	-121.526	-180.184	13.4882	-140.905	-176.988	7.65019	-165.692	-174.932	-1.59079	-102.508	-165.766	-7.88461	-119.476	-162.072	-23.4921	-135.847	-201.026	26.0226	-72.5938	-209.308	27.7371	-42.5868	-207.509	54.2229	-56.6363	
257	2.14167	-179.07	84.5201	-43.4049	-170.127	99.2108	-63.2472	-167.895	111.598	-80.3365	-166.946	131.537	-91.7343	-183.604	76.1428	-121.277	-180.33	75.0169	-144.939	-183.982	75.5344	-165.203	-189.997	49.2792	-126.337	-187.936	41.6903	-152.245	-189.708	42.0863	-176.902	-187.206	24.1068	-117.602	-183.3	15.5938	-140.189	-180.879	12.6619	-165.483	-179.876	-0.508149	-103.381	-171.556	-11.1412	-121.456	-173.358	-27.5451	-137.423	-201.465	30.5921	-74.3723	-210.462	31.6794	-42.6592	-201.645	58.9106	-62.0513	
258	2.15	-171.975	81.8679	-45.5449	-158.66	92.3408	-60.6391	-154.887	115.039	-80.9655	-152.207	128.883	-89.0605	-177.149	75.054	-120.617	-174.553	76.5915	-142.884	-178.234	78.9471	-164.587	-188.766	47.6035	-126.184	-185.707	47.9528	-152.955	-189.516	41.5215	-179.561	-187.433	26.6144	-122.548	-185.403	21.3761	-144.772	-186.453	12.4302	-170.535	-185.199	2.226	-108.215	-180.089	-12.3982	-123.726	-181.401	-22.9765	-137.992	-204.218	33.0634	-72.6568	-209.292	39.1717	-45.1693	-198.032	63.1909	-60.1538	
259	2.15833	-163.192	81.3044	-47.9879	-148.031	91.5003	-62.6441	-141.255	108.558	-83.1048	-132.683	125.227	-86.0045	-171.207	74.1871	-120.593	-164.82	80.7556	-140.73	-168.998	82.9236	-163.869	-185.494	52.2829	-127.242	-183.368	50.0636	-148.968	-186.152	50.1935	-180.881	-189.527	27.6066	-123.827	-187.539	22.9223	-142.658	-187.723	19.6962	-171.759	-190.353	7.12534	-105.798	-186.961	-9.52	-122.292	-191.923	-18.0696	-143.526	-206.585	37.0811	-72.6049	-208.316	42.916	-44.8931	-193.073	71.0662	-61.604	
260	2.16667	-156.156	75.7064	-47.5441	-138.011	85.4439	-61.6447	-126.929	100.491	-78.3402	-116.289	113.105	-83.9128	-162.916	73.6493	-122.675	-158.263	74.4036	-141.122	-159.308	83.183	-164.188	-180.435	55.9874	-126.76	-178.917	54.399	-149.699	-182.184	56.5861	-180	-187.695	35.2413	-121.978	-187.461	29.5454	-144.205	-189.616	23.8403	-170.366	-195.291	7.13884	-112.69	-193.528	-1.83677	-124.085	-202.298	-11.6593	-147.071	-204.182	41.3961	-74.2092	-207.853	46.3473	-46.2196	-188.352	67.8874	-60.6898	
